PathFileType	4	(X/Y/Z)	Patient4_TMGait_0pt2_01_left_06.trc.trc
DataRate	CameraRate	NumFrames	NumMarkers	Units	OrigDataRate	OrigDataStartFrame	OrigNumFrames
43.343653250774	43.343653250774	4	33	mm	43.343653250774	89	       141
Frame#	Time	Sacral			L.Shoulder			Chest			R.Shoulder			Neck			R.ASIS			L.ASIS			R.Thigh.Superior			R.Thigh.Lateral			R.Thigh.Inferior			R.Patella			L.Thigh.Superior			L.Thigh.Lateral			L.Thigh.Inferior			L.Patella			L.Shank.Superior			L.Shank.Lateral			L.Shank.Inferior			R.Shank.Superior			R.Shank.Lateral			R.Shank.Inferior			R.Heel			R.Midfoot.Superior			R.Midfoot.Lateral			R.Toe			L.Heel			L.Midfoot.Lateral			L.Midfoot.Superior			L.Toe			L.Elbow			L.Wrist			R.Elbow			R.Wrist			
		X1	Y1	Z1	X2	Y2	Z2	X3	Y3	Z3	X4	Y4	Z4	X5	Y5	Z5	X6	Y6	Z6	X7	Y7	Z7	X8	Y8	Z8	X9	Y9	Z9	X10	Y10	Z10	X11	Y11	Z11	X12	Y12	Z12	X13	Y13	Z13	X14	Y14	Z14	X15	Y15	Z15	X16	Y16	Z16	X17	Y17	Z17	X18	Y18	Z18	X19	Y19	Z19	X20	Y20	Z20	X21	Y21	Z21	X22	Y22	Z22	X23	Y23	Z23	X24	Y24	Z24	X25	Y25	Z25	X26	Y26	Z26	X27	Y27	Z27	X28	Y28	Z28	X29	Y29	Z29	X30	Y30	Z30	X31	Y31	Z31	X32	Y32	Z32	X33	Y33	Z33	

89	14.700285714286	829.960198568223	1007.903461846040	502.691843143043	1050.828881985818	1430.562504635958	357.298473197452	1115.646543516031	1362.923820736173	536.698070046275	1000.369944074859	1441.483227181887	687.852246024326	999.522931439146	1494.074966303524	508.000209405929	1036.338820563020	940.329357601412	660.034295096572	1067.184796965203	957.138276685867	387.066439544032	1092.452756726471	746.773758618326	622.221207197562	1015.492124519423	630.344210019604	673.063556031252	1099.682897519482	584.749430404120	595.696023487473	1105.463585366071	496.252349434419	599.698096435206	1067.675528883953	726.283001926911	409.285398556479	964.277503818232	629.576365920487	327.784342692268	1019.851148649725	536.168027573653	396.283194881098	1004.817253825196	464.739356240994	398.193300121517	959.331983777270	403.650660912093	380.794789266440	847.415313653410	319.250710883506	315.174253052988	864.624093655996	193.344915132001	377.325315062467	1077.140475063157	406.313095734029	604.616408642940	1005.745381722359	302.170659083134	666.166581058603	1047.382012609231	207.825938256928	601.732141841602	911.668062501650	43.804945742926	572.170449733571	1083.498915801593	97.766707462026	609.009416530445	994.951249504964	37.731016029516	646.865715856983	1202.698636996145	45.989882442029	637.264102590900	704.389328130888	58.563954371809	399.029694538048	781.959775421704	48.124494885572	323.471128614260	870.232622818014	100.546644371709	354.922482219520	992.454777948628	38.151686190403	330.523165126823	1200.203055095341	1137.206953502179	216.319506436145	1443.053600048609	1201.573083584872	265.598109804060	866.833517348897	1116.767905929717	782.690709858941	867.432656401287	853.973370797533	780.031082273147	
90	14.723357142857	831.088578430964	1008.464003693470	509.417935874094	1050.408125073712	1430.856108865675	361.375153527065	1116.771447850170	1363.641598463910	540.366698846855	1002.650323684487	1442.311280673249	692.336243942494	1000.433949698980	1494.713343232046	512.350943145458	1038.577689140617	941.030284819919	665.202508048244	1067.437708749998	957.589432954803	392.067082874964	1092.561440680200	746.168471075036	626.693250700272	1014.472389347572	630.258733820321	677.082967141781	1097.804306831652	584.269289313728	599.164820102421	1102.564300020143	495.753819002178	602.531401675342	1069.448920715755	727.075998908089	413.830657448908	966.558979167018	630.022884628243	332.453858763482	1023.490696508584	536.405305463290	400.075071588136	1008.821634838232	464.087682330859	401.215144242734	961.529089400384	403.874778737222	383.626494769578	847.856509868254	321.998780050247	317.861776416396	863.611916989740	195.058748242760	378.189925438832	1074.017717759402	406.032453573162	606.893242831944	1002.312722761124	301.734579973223	667.668546124812	1043.451538989422	207.628229538072	602.658444699201	907.241174507316	43.827324664258	572.209228138427	1079.108827653260	97.681805070894	609.141849075604	990.569386204732	37.708743696526	646.918779320387	1198.359517870671	45.629038486638	637.363942877977	701.178114272207	63.221661068756	399.138595236358	778.448983525733	51.018005191389	323.575741526960	867.794748966297	101.397257308108	354.953591662417	988.382527088833	37.641701094420	330.490623286435	1196.247306947396	1133.673031282691	222.397517671008	1441.183086934830	1191.266825590960	271.436295471036	873.755560933435	1116.000975304483	790.221371381146	879.398023076787	853.314613508510	789.529211728235	
91	14.746428571429	832.041758300323	1008.868646479424	516.093552235838	1049.381896093779	1431.124582355084	365.190307752673	1117.547229294398	1364.358799568241	543.663515134287	1004.736574686460	1443.026364495818	696.618822776865	1000.964363578402	1495.287348451820	516.513393090361	1040.810218689249	941.662350381263	670.043876263446	1067.393710611000	958.044252698198	396.726689629418	1092.747396964789	745.563389948192	630.871495927403	1013.623366471418	630.130739257688	680.910052022221	1096.085594306326	583.781528518628	602.435833625613	1099.860145398919	495.231192718742	605.214107366535	1071.482173570549	727.963892512395	418.229427722007	969.396050476657	630.290530517523	337.076363880562	1027.919377326925	536.600362401842	403.864988582353	1013.674346460827	463.316356523819	404.216268638857	964.485655826682	403.978603617172	386.466642532065	848.967515497425	324.839933577400	320.619880814355	863.044026833114	196.903906346775	379.109547370631	1071.044353496169	405.732492990580	609.044168819175	999.010291833722	301.334383826497	669.079735408192	1039.641704272393	207.448979917288	603.526516895764	902.859814132077	43.914266821917	572.225644164977	1074.783888389353	97.600294541192	609.249053541912	986.224175803323	37.707274921445	646.940338324843	1194.046811830307	45.216303680627	637.447201340706	698.210035802346	68.458226520528	399.339850149552	775.069141656359	54.291478978772	323.748099475260	865.573164870198	102.346720445864	355.032300121448	984.238871831078	37.148611167253	330.538693183335	1190.654393867890	1129.569688175133	228.182038741149	1437.906961825648	1178.336269697049	276.971611852812	880.740724359358	1115.119684378859	797.479008760203	891.871389872231	852.689769322795	798.427549899619	
92	14.769500000000	832.820662155198	1009.099283003341	522.691141145534	1047.800514497104	1431.340221774617	368.782938433783	1117.982106963309	1365.036160959135	546.637199430133	1006.595839133263	1443.586743692659	700.716045394018	1001.124725956584	1495.767105813278	520.508600448756	1043.012517802230	942.194765968555	674.568588654723	1067.065591009586	958.471667521360	401.058837383841	1093.056943391955	744.967518330481	634.760477060952	1013.015816750728	629.938610235471	684.536839443409	1094.627177803363	583.279515630517	605.517359065321	1097.481625368944	494.658527501874	607.765498986858	1073.744518588883	728.930940769515	422.470259770127	972.764037654268	630.392015845177	341.597350550710	1033.079518477549	536.769921682303	407.614541446417	1019.308707324963	462.458451580239	407.147835921460	968.171557362895	403.975710765354	389.276979972703	850.733462976756	327.797416613460	323.427324536133	862.901987619300	198.920185110890	380.091392664656	1068.308213403890	405.384806232106	611.076329038874	995.888787234898	300.960195720551	670.413436693689	1035.964990368895	207.269048217019	604.333109908958	898.484881731697	44.068097889748	572.219705740741	1070.488270184454	97.524794462646	609.331612896183	981.872521641185	37.729043940827	646.927902128059	1189.725275673812	44.747876393317	637.514451526864	695.497530969764	74.348435247470	399.674776655835	771.811846861816	58.022569762054	324.027253378640	863.547059884593	103.454217027965	355.185194131600	979.973657372522	36.661515455019	330.690972350100	1183.465536538143	1124.978627278534	233.667505922879	1433.038834214870	1162.736344567541	282.157823785869	887.804320388241	1114.061675282498	804.474023943615	904.944245734549	852.063767476177	806.762695988647	
